<svg xmlns="http://www.w3.org/2000/svg" viewBox="0 0 275 104" width="275" height="104"><g fill="#FBBF24"><path d="M14.70 24.20Q12.16 24.20 10.74 22.79Q9.31 21.38 9.31 18.76V12.10H12.06V18.66Q12.06 20.36 12.76 21.11Q13.46 21.86 14.71 21.86Q15.97 21.86 16.67 21.11Q17.37 20.36 17.37 18.66V12.10H20.09V18.76Q20.09 21.38 18.66 22.79Q17.23 24.20 14.70 24.20Z"/><path d="M30.46 24.00V12.10H32.73L38.65 19.32V12.10H41.37V24.00H39.11L33.18 16.77V24.00Z"/><path d="M51.84 24.00V12.10H54.60V24.00Z"/><path d="M67.53 24.00V14.34H63.73V12.10H74.10V14.34H70.29V24.00Z"/><path d="M83.22 24.00V12.10H92.22V14.31H85.96V16.89H91.49V19.04H85.96V21.79H92.44V24.00Z"/><path d="M102.28 24.00V12.10H107.69Q109.63 12.10 111.10 12.84Q112.58 13.58 113.42 14.91Q114.25 16.23 114.25 18.05Q114.25 19.85 113.42 21.19Q112.58 22.52 111.10 23.26Q109.63 24.00 107.69 24.00ZM105.04 21.74H107.55Q108.74 21.74 109.62 21.29Q110.49 20.84 110.98 20.01Q111.46 19.17 111.46 18.05Q111.46 16.91 110.98 16.09Q110.49 15.26 109.62 14.81Q108.74 14.36 107.55 14.36H105.04Z"/><path d="M138.90 24.00V14.34H135.09V12.10H145.46V14.34H141.65V24.00Z"/><path d="M160.20 24.20Q158.79 24.20 157.59 23.75Q156.39 23.29 155.52 22.45Q154.64 21.62 154.16 20.50Q153.67 19.38 153.67 18.05Q153.67 16.72 154.16 15.60Q154.64 14.48 155.53 13.65Q156.41 12.81 157.60 12.36Q158.79 11.90 160.18 11.90Q161.60 11.90 162.78 12.36Q163.96 12.81 164.83 13.65Q165.71 14.48 166.20 15.59Q166.70 16.71 166.70 18.05Q166.70 19.38 166.20 20.51Q165.71 21.64 164.83 22.46Q163.96 23.29 162.78 23.75Q161.60 24.20 160.20 24.20ZM160.18 21.86Q160.98 21.86 161.65 21.59Q162.33 21.31 162.84 20.80Q163.35 20.29 163.63 19.60Q163.91 18.90 163.91 18.05Q163.91 17.20 163.63 16.50Q163.35 15.81 162.84 15.30Q162.34 14.79 161.66 14.51Q160.98 14.24 160.18 14.24Q159.39 14.24 158.71 14.51Q158.04 14.79 157.53 15.30Q157.02 15.81 156.74 16.50Q156.46 17.20 156.46 18.05Q156.46 18.88 156.74 19.59Q157.02 20.29 157.52 20.80Q158.03 21.31 158.71 21.59Q159.39 21.86 160.18 21.86Z"/></g><g fill="#FFFFFF"><path d="M25.39 96.58Q18.74 96.58 15.02 93.28Q11.31 89.98 11.31 83.33V70.34H6.26V61.31H11.31V53.57H23.47V61.31H31.41V70.34H23.47V83.20Q23.47 85.06 24.50 86.11Q25.52 87.17 27.12 87.17Q29.30 87.17 30.83 86.08L33.84 94.59Q32.30 95.62 30.06 96.10Q27.82 96.58 25.39 96.58Z"/><path d="M36.34 96.00V48.51H48.50V64.51Q49.71 63.42 51.12 62.59Q54.58 60.74 58.93 60.74Q62.96 60.74 66.22 62.37Q69.49 64.00 71.38 67.39Q73.26 70.78 73.26 76.16V96.00H61.10V78.14Q61.10 74.43 59.60 72.74Q58.10 71.04 55.41 71.04Q53.49 71.04 51.89 71.90Q50.29 72.77 49.39 74.56Q48.50 76.35 48.50 79.23V96.00Z"/><path d="M78.70 96.00V61.31H90.29V65.47Q91.63 63.81 93.55 62.66Q97.01 60.74 101.94 60.74V71.68Q101.10 71.55 100.50 71.52Q99.89 71.49 99.18 71.49Q95.47 71.49 93.17 73.50Q90.86 75.52 90.86 80.06V96.00Z"/><path d="M104.75 96.00V61.31H116.91V96.00ZM110.83 57.47Q107.50 57.47 105.46 55.62Q103.41 53.76 103.41 51.01Q103.41 48.26 105.46 46.40Q107.50 44.54 110.83 44.54Q114.16 44.54 116.21 46.30Q118.26 48.06 118.26 50.82Q118.26 53.70 116.24 55.58Q114.22 57.47 110.83 57.47Z"/><path d="M132.27 96.00 118.00 61.31H130.48L138.80 82.50L147.57 61.31H159.15L144.82 96.00Z"/><path d="M177.33 96.58Q171.18 96.58 166.61 94.24Q162.03 91.90 159.50 87.84Q156.98 83.78 156.98 78.59Q156.98 73.41 159.44 69.34Q161.90 65.28 166.26 63.01Q170.61 60.74 176.05 60.74Q181.17 60.74 185.39 62.82Q189.62 64.90 192.11 68.93Q194.61 72.96 194.61 78.72Q194.61 79.36 194.54 80.19Q194.48 81.02 194.42 81.73H169.20Q169.46 82.69 169.97 83.46Q170.99 85.31 172.98 86.30Q174.96 87.30 177.71 87.30Q180.27 87.30 182.10 86.56Q183.92 85.82 185.71 84.29L192.11 90.94Q189.62 93.70 185.97 95.14Q182.32 96.58 177.33 96.58ZM169.01 75.33H183.22Q183.02 74.05 182.51 73.02Q181.55 71.30 179.92 70.34Q178.29 69.38 176.11 69.38Q173.94 69.38 172.30 70.34Q170.67 71.30 169.78 73.02Q169.26 74.11 169.01 75.33Z"/></g><g transform="translate(235.64,69.82) scale(1.45455)"><g stroke="#FBBF24" stroke-width="2" stroke-linecap="round" fill="none"><line x1="-27" y1="-3" x2="0" y2="0"/><line x1="0" y1="0" x2="-10" y2="-13"/><line x1="0" y1="0" x2="15" y2="-15"/><line x1="0" y1="0" x2="20" y2="1"/><line x1="0" y1="0" x2="11" y2="15"/><line x1="0" y1="0" x2="-7" y2="15"/><line x1="0" y1="0" x2="5" y2="-8"/></g><g fill="#FBBF24"><circle cx="-10" cy="-13" r="2.84"/><circle cx="15" cy="-15" r="2.97"/><circle cx="20" cy="1" r="2.57"/><circle cx="11" cy="15" r="2.84"/><circle cx="-7" cy="15" r="2.7"/><circle cx="5" cy="-8" r="2.43"/><circle cx="0" cy="0" r="4.4"/></g></g></svg>